<?xml version="1.0" encoding="UTF-8"?>
<!DOCTYPE svg PUBLIC "-//W3C//DTD SVG 1.1//EN" "http://www.w3.org/Graphics/SVG/1.1/DTD/svg11.dtd">
<svg xmlns="http://www.w3.org/2000/svg" version="1.1" width="241px" height="209px" style="shape-rendering:geometricPrecision; text-rendering:geometricPrecision; image-rendering:optimizeQuality; fill-rule:evenodd; clip-rule:evenodd" xmlns:xlink="http://www.w3.org/1999/xlink">
<g><path style="opacity:0.529" fill="#f9acae" d="M 127.5,7.5 C 127.56,6.95691 127.893,6.62358 128.5,6.5C 131.311,7.07963 133.977,7.74629 136.5,8.5C 133.391,8.73586 130.391,8.40252 127.5,7.5 Z"/></g>
<g><path style="opacity:1" fill="#ed2531" d="M 127.5,7.5 C 130.391,8.40252 133.391,8.73586 136.5,8.5C 142.528,8.75828 148.194,10.0916 153.5,12.5C 152.167,13.1667 150.833,13.8333 149.5,14.5C 111.392,17.9442 85.2257,37.2775 71,72.5C 64.2233,93.5418 66.89,113.209 79,131.5C 98.5984,153.105 121.432,157.272 147.5,144C 169.463,126.987 175.297,105.487 165,79.5C 157.338,66.0233 145.838,57.69 130.5,54.5C 129.586,51.272 129.253,47.9387 129.5,44.5C 132.614,29.3847 141.614,19.718 156.5,15.5C 158.167,15.5 159.833,15.5 161.5,15.5C 190.516,27.845 209.183,49.1783 217.5,79.5C 217.565,82.4282 218.232,85.0948 219.5,87.5C 221.25,93.6552 221.583,99.9885 220.5,106.5C 219.597,109.391 219.264,112.391 219.5,115.5C 219.5,115.833 219.5,116.167 219.5,116.5C 218.539,118.265 218.205,120.265 218.5,122.5C 217.388,124.599 216.721,126.933 216.5,129.5C 205.383,163.16 182.716,184.994 148.5,195C 131.507,199.374 114.507,199.541 97.5,195.5C 95.5615,193.837 93.2282,193.171 90.5,193.5C 83.6123,191.987 77.279,189.32 71.5,185.5C 71.0269,184.094 70.0269,183.427 68.5,183.5C 67.2905,183.068 66.2905,182.401 65.5,181.5C 65.0269,180.094 64.0269,179.427 62.5,179.5C 61.2905,179.068 60.2905,178.401 59.5,177.5C 59.1667,176.5 58.5,175.833 57.5,175.5C 51.8121,171.812 47.1454,167.145 43.5,161.5C 43.1667,160.5 42.5,159.833 41.5,159.5C 37.8442,156.197 35.1775,152.197 33.5,147.5C 33.3404,145.847 32.6737,144.514 31.5,143.5C 28.7376,138.895 26.7376,133.895 25.5,128.5C 25.3239,125.273 24.6572,122.273 23.5,119.5C 23.5,119.167 23.5,118.833 23.5,118.5C 23.702,116.05 23.3686,113.717 22.5,111.5C 22.5,111.167 22.5,110.833 22.5,110.5C 22.3437,102.471 22.677,94.4712 23.5,86.5C 23.5,86.1667 23.5,85.8333 23.5,85.5C 24.7682,83.0948 25.4349,80.4282 25.5,77.5C 25.595,75.2143 26.2616,73.2143 27.5,71.5C 29.6907,69.0383 31.0241,66.0383 31.5,62.5C 33.1398,57.2173 35.8065,52.5507 39.5,48.5C 40.9063,48.0269 41.573,47.0269 41.5,45.5C 41.8333,44.5 42.5,43.8333 43.5,43.5C 45.2624,42.7377 46.2624,41.4044 46.5,39.5C 48.5691,36.4275 51.2358,34.0941 54.5,32.5C 55.8333,31.8333 56.8333,30.8333 57.5,29.5C 60.2749,26.3954 63.6082,24.0621 67.5,22.5C 69.0269,22.573 70.0269,21.9063 70.5,20.5C 88.0755,10.0233 107.075,5.68993 127.5,7.5 Z"/></g>
<g><path style="opacity:0.34" fill="#f7a0a4" d="M 153.5,12.5 C 156.21,13.5058 158.876,14.5058 161.5,15.5C 159.833,15.5 158.167,15.5 156.5,15.5C 154.393,14.5318 152.059,14.1984 149.5,14.5C 150.833,13.8333 152.167,13.1667 153.5,12.5 Z"/></g>
<g><path style="opacity:0.655" fill="#fca1a0" d="M 70.5,20.5 C 70.0269,21.9063 69.0269,22.573 67.5,22.5C 67.9731,21.0937 68.9731,20.427 70.5,20.5 Z"/></g>
<g><path style="opacity:0.404" fill="#f3adaf" d="M 57.5,29.5 C 56.8333,30.8333 55.8333,31.8333 54.5,32.5C 54.5,30.5 55.5,29.5 57.5,29.5 Z"/></g>
<g><path style="opacity:0.69" fill="#f6a1a1" d="M 46.5,39.5 C 46.2624,41.4044 45.2624,42.7377 43.5,43.5C 43.7376,41.5956 44.7376,40.2623 46.5,39.5 Z"/></g>
<g><path style="opacity:0.31" fill="#f6b2b4" d="M 41.5,45.5 C 41.573,47.0269 40.9063,48.0269 39.5,48.5C 39.427,46.9731 40.0937,45.9731 41.5,45.5 Z"/></g>
<g><path style="opacity:0.604" fill="#f58085" d="M 129.5,44.5 C 129.253,47.9387 129.586,51.272 130.5,54.5C 129.223,53.3064 128.556,51.6397 128.5,49.5C 128.507,47.6307 128.84,45.964 129.5,44.5 Z"/></g>
<g><path style="opacity:1" fill="#f7746b" d="M 31.5,62.5 C 31.0241,66.0383 29.6907,69.0383 27.5,71.5C 27.6924,67.8976 29.0257,64.8976 31.5,62.5 Z"/></g>
<g><path style="opacity:0.565" fill="#f6a7a9" d="M 25.5,77.5 C 25.4349,80.4282 24.7682,83.0948 23.5,85.5C 23.0618,85.5654 22.7284,85.3988 22.5,85C 23.282,82.3281 24.282,79.8281 25.5,77.5 Z"/></g>
<g><path style="opacity:0.376" fill="#f8b4b6" d="M 217.5,79.5 C 219.04,81.8383 219.706,84.5049 219.5,87.5C 218.232,85.0948 217.565,82.4282 217.5,79.5 Z"/></g>
<g><path style="opacity:0.161" fill="#f9cbcd" d="M 23.5,86.5 C 22.677,94.4712 22.3437,102.471 22.5,110.5C 21.8349,107.351 21.5016,104.018 21.5,100.5C 21.3002,95.5629 21.9669,90.8962 23.5,86.5 Z"/></g>
<g><path style="opacity:0.51" fill="#f9b4b6" d="M 220.5,106.5 C 221.097,106.735 221.43,107.235 221.5,108C 220.984,110.669 220.317,113.169 219.5,115.5C 219.264,112.391 219.597,109.391 220.5,106.5 Z"/></g>
<g><path style="opacity:0.545" fill="#f7a7a8" d="M 22.5,111.5 C 23.3686,113.717 23.702,116.05 23.5,118.5C 22.7171,116.657 22.0505,114.657 21.5,112.5C 21.6236,111.893 21.9569,111.56 22.5,111.5 Z"/></g>
<g><path style="opacity:0.459" fill="#f7b8ba" d="M 219.5,116.5 C 220.161,118.556 219.828,120.556 218.5,122.5C 218.205,120.265 218.539,118.265 219.5,116.5 Z"/></g>
<g><path style="opacity:0.122" fill="#f6cbcc" d="M 23.5,119.5 C 24.6572,122.273 25.3239,125.273 25.5,128.5C 23.8819,125.829 23.2153,122.829 23.5,119.5 Z"/></g>
<g><path style="opacity:0.022" fill="#f3d5d7" d="M 218.5,122.5 C 218.829,125.228 218.163,127.562 216.5,129.5C 216.721,126.933 217.388,124.599 218.5,122.5 Z"/></g>
<g><path style="opacity:0.114" fill="#f1c9cb" d="M 31.5,143.5 C 32.6737,144.514 33.3404,145.847 33.5,147.5C 31.8958,146.713 31.2291,145.38 31.5,143.5 Z"/></g>
<g><path style="opacity:0.02" fill="#f4cbcc" d="M 41.5,159.5 C 42.5,159.833 43.1667,160.5 43.5,161.5C 42.1667,161.5 41.5,160.833 41.5,159.5 Z"/></g>
<g><path style="opacity:0.008" fill="#f5dbdc" d="M 57.5,175.5 C 58.5,175.833 59.1667,176.5 59.5,177.5C 58.1667,177.5 57.5,176.833 57.5,175.5 Z"/></g>
<g><path style="opacity:0.392" fill="#f6a0a0" d="M 62.5,179.5 C 64.0269,179.427 65.0269,180.094 65.5,181.5C 63.9731,181.573 62.9731,180.906 62.5,179.5 Z"/></g>
<g><path style="opacity:0.129" fill="#f4cccd" d="M 68.5,183.5 C 70.0269,183.427 71.0269,184.094 71.5,185.5C 69.9731,185.573 68.9731,184.906 68.5,183.5 Z"/></g>
<g><path style="opacity:0.859" fill="#fa9995" d="M 90.5,193.5 C 93.2282,193.171 95.5615,193.837 97.5,195.5C 94.9327,195.279 92.5994,194.612 90.5,193.5 Z"/></g>
</svg>
